<svg id="レイヤー_1" data-name="レイヤー 1" xmlns="http://www.w3.org/2000/svg" viewBox="0 0 41 38"><defs><style>.cls-1{fill:#fff;}</style></defs><polygon class="cls-1" points="28.61 32.52 6.98 32.52 6.98 5.48 17.8 5.48 17.8 2.78 4.28 2.78 4.28 35.22 31.32 35.22 31.32 25.53 28.61 28.23 28.61 32.52"/><polygon class="cls-1" points="20.5 8.19 25.35 13.03 27.26 11.12 18.92 2.78 17.8 2.78 20.5 5.48 20.5 8.19"/><polygon class="cls-1" points="20.5 13.59 20.5 8.19 20.5 5.48 17.8 2.78 17.8 5.48 17.8 16.3 22.08 16.3 24.79 13.59 20.5 13.59"/><polygon class="cls-1" points="17.8 29.82 25.91 27.11 20.5 21.7 17.8 29.82"/><polygon class="cls-1" points="23.2 24.41 21.5 22.67 32.3 11.87 31.32 10.89 20.5 21.7 25.91 27.11 36.72 16.3 34.02 13.59 23.2 24.41"/></svg>