<svg id="レイヤー_1" data-name="レイヤー 1" xmlns="http://www.w3.org/2000/svg" viewBox="0 0 41 38"><defs><style>.cls-1{fill:#fff;}</style></defs><path class="cls-1" d="M4.34,24.39v8.07A2.7,2.7,0,0,0,7,35.16h8.07V24.39Z"/><path class="cls-1" d="M25.89,35.16H34a2.7,2.7,0,0,0,2.7-2.7V24.39H25.89Z"/><path class="cls-1" d="M4.34,13.61a2.7,2.7,0,0,0-2.69,2.7V19a2.69,2.69,0,0,0,2.69,2.69H15.11V13.61Z"/><path class="cls-1" d="M36.66,13.61H25.89v8.08H36.66A2.69,2.69,0,0,0,39.35,19V16.31A2.7,2.7,0,0,0,36.66,13.61Z"/><polygon class="cls-1" points="17.81 13.62 17.81 16.31 17.81 21.69 17.81 24.39 17.81 35.16 23.19 35.16 23.19 24.39 23.19 21.69 23.19 16.31 23.19 13.62 17.81 13.62"/><ellipse class="cls-1" cx="20.5" cy="8.23" rx="3.59" ry="2.69"/><path class="cls-1" d="M35.8,8.37,34,2.84l-8.23,3.3a4.27,4.27,0,0,1,.56,2.09,4.4,4.4,0,0,1-.94,2.69H34A1.82,1.82,0,0,0,35.8,8.37Z"/><path class="cls-1" d="M15.27,6.14,7,2.84,5.2,8.37A1.82,1.82,0,0,0,7,10.92h8.61a4.4,4.4,0,0,1-.94-2.69A4.27,4.27,0,0,1,15.27,6.14Z"/></svg>